<svg xmlns="http://www.w3.org/2000/svg" viewBox="0 0 100 100"><path fill="#d85b53" d="M86 28H60v-6c0-1.1-.9-2-2-2H42c-1.1 0-2 .9-2 2v6H14c-1.1 0-2 .9-2 2v48c0 1.1.9 2 2 2h72c1.1 0 2-.9 2-2V30c0-1.1-.9-2-2-2zm-42-4h12v4H44v-4zm40 52H16V56h28v5.9c0 1.1.9 2 2 2h8c1.1 0 2-.9 2-2V56h28v20zM48 59.9v-12h4v12h-4zM84 52H56v-6c0-1.1-.9-2-2-2h-8c-1.1 0-2 .9-2 2v6H16V32h68v20z" class="color000000 svgShape"/><path fill="#26d7fe" d="M524-930V754h-1784V-930H524m8-8h-1800V762H532V-938z" class="color0000ff svgShape"/></svg>